# generated from PmQm by Jehee Lee
:FULLY-SPECIFIED
:DEGREES
619
root 2.50136 24.82 -15.5866 153.007 12.8363 -177.049
RightUpLeg -48.5891 2.56297 -1.37067
RightLeg 74.0023 1.78886 6.05167
RightFoot -1.69367 -0.597381 7.00029
RightToes -0.000541893 -0.000659172 -0.000493268
Spine 13.9609 -0.0284616 1.94148
Spine1 28.161 -0.487758 3.49404
HEad -17.9398 -42.7197 15.2059
LeftShoulder1 -3.88251e-019 -0 -3.92111e-022
LeftArm -31.4405 -3.99403 -84.1153
LeftForeArm 25.6551 2.27673 -0.456082
LeftHand -0.651126 -6.82763 6.52641
RightShoulder 7.45443e-017 -2.42657e-020 1.96277e-018
RightArm -23.7038 -1.15877 73.9515
RightForeArm 17.0948 1.4694 5.09397
RightHand -2.00231 13.4704 -12.6651
LeftUpLeg -49.2427 -6.85246 7.70507
LeftLeg 75.6159 -1.75913 -6.70699
LeftFoot -3.10625 0.400623 -5.35216
LeftToes 3.91355e-005 3.11907e-005 -4.10385e-006
620
root 2.50226 24.832 -15.6029 153.162 12.7811 -177.059
RightUpLeg -48.7209 2.5194 -1.43054
RightLeg 74.0169 1.78913 6.0738
RightFoot -1.75365 -0.592981 6.92098
RightToes -0.000541893 -0.000659172 -0.000493268
Spine 13.9815 -0.0250635 1.91705
Spine1 28.2039 -0.478427 3.45837
HEad -18.1991 -42.833 15.1035
LeftShoulder1 -3.88251e-019 -0 -3.92111e-022
LeftArm -31.4221 -3.98572 -84.1056
LeftForeArm 25.4557 2.29503 -0.613269
LeftHand -0.592358 -6.87212 5.95017
RightShoulder 7.45443e-017 -2.42657e-020 1.96277e-018
RightArm -23.584 -1.054 74.0248
RightForeArm 16.7593 1.25177 4.92988
RightHand -1.95901 13.5635 -12.3449
LeftUpLeg -49.3949 -7.04163 7.69721
LeftLeg 75.6131 -1.73803 -6.61059
LeftFoot -3.10817 0.402668 -5.38955
LeftToes 3.91355e-005 3.11907e-005 -4.10385e-006
621
root 2.50587 24.8359 -15.6264 153.307 12.7191 -177.083
RightUpLeg -48.8796 2.53333 -1.50595
RightLeg 74.0926 1.77171 6.03813
RightFoot -1.82774 -0.593824 6.92001
RightToes -0.000541893 -0.000659172 -0.000493268
Spine 13.9652 0.006564240004 1.91377
Spine1 28.1733 -0.416673 3.47163
HEad -18.163 -43.0226 14.7639
LeftShoulder1 -3.88251e-019 -0 -3.92111e-022
LeftArm -31.4743 -3.96772 -84.1845
LeftForeArm 25.0659 2.32307 -0.835428
LeftHand -0.45924 -7.10296 4.61812
RightShoulder 7.45443e-017 -2.42657e-020 1.96277e-018
RightArm -23.4833 -1.12017 73.9916
RightForeArm 16.5234 1.14639 4.94632
RightHand -1.9476 13.5596 -12.2786
LeftUpLeg -49.5548 -7.2207 7.68187
LeftLeg 75.6577 -1.71202 -6.51793
LeftFoot -3.15062 0.404613 -5.42585
LeftToes 3.91355e-005 3.11907e-005 -4.10385e-006
622
root 2.51341 24.8336 -15.6357 153.433 12.6584 -177.074
RightUpLeg -49.0119 2.65243 -1.55815
RightLeg 74.1197 1.73405 5.89952
RightFoot -1.82942 -0.609656 7.15178
RightToes -0.000541893 -0.000659172 -0.000493268
Spine 13.9092 0.064525 1.88659
Spine1 28.0636 -0.295513 3.43401
HEad -17.7509 -43.0805 14.3214
LeftShoulder1 -3.88251e-019 -0 -3.92111e-022
LeftArm -31.6088 -3.86161 -84.1276
LeftForeArm 25.2479 2.31581 -0.809193
LeftHand -0.405761 -7.23584 4.08468
RightShoulder 7.45443e-017 -2.42657e-020 1.96277e-018
RightArm -23.5268 -1.34453 73.9808
RightForeArm 16.7049 1.13707 5.16007
RightHand -1.99323 13.4965 -12.5932
LeftUpLeg -49.7128 -7.41095 7.72056
LeftLeg 75.6862 -1.69201 -6.4431
LeftFoot -3.16912 0.406807 -5.46856
LeftToes 3.91355e-005 3.11907e-005 -4.10385e-006
623
root 2.52237 24.8434 -15.6333 153.784 12.5975 -177.059
RightUpLeg -49.3628 2.8403 -1.62099
RightLeg 74.0763 1.70047 5.7468
RightFoot -1.83821 -0.617297 7.26748
RightToes -0.000541893 -0.000659172 -0.000493268
Spine 13.8011 0.138983 1.84923
Spine1 27.8519 -0.139365 3.3857
HEad -17.4347 -43.0896 14.062
LeftShoulder1 -3.88251e-019 -0 -3.92111e-022
LeftArm -31.6277 -3.66302 -84.0217
LeftForeArm 25.8537 2.28594 -0.632208
LeftHand -0.432797 -7.12511 4.36636
RightShoulder 7.45443e-017 -2.42657e-020 1.96277e-018
RightArm -23.5796 -1.35781 73.9917
RightForeArm 17.0299 0.712419 5.24654
RightHand -2.06643 13.6424 -12.941
LeftUpLeg -50.0968 -7.65617 7.81462
LeftLeg 75.636 -1.66621 -6.30002
LeftFoot -3.15729 0.417359 -5.64636
LeftToes 3.91355e-005 3.11907e-005 -4.10385e-006
624
root 2.54694 24.8526 -15.6487 154.47 12.6025 -177.046
RightUpLeg -50.1165 3.27202 -1.6975
RightLeg 74.0813 1.63682 5.49459
RightFoot -1.73924 -0.65083 7.59604
RightToes -0.000541893 -0.000659172 -0.000493268
Spine 13.6306 0.208995 1.8852
Spine1 27.517 -0.007433870005 3.45702
HEad -17.5166 -42.9724 13.8825
LeftShoulder1 -3.88251e-019 -0 -3.92111e-022
LeftArm -31.6428 -3.32344 -84.1638
LeftForeArm 26.0767 2.27572 -0.581387
LeftHand -0.440332 -6.98016 4.48066
RightShoulder 7.45443e-017 -2.42657e-020 1.96277e-018
RightArm -23.6192 -1.35985 73.8983
RightForeArm 17.6244 0.363685 5.18124
RightHand -2.03662 13.5553 -12.8186
LeftUpLeg -50.8372 -7.80821 7.99394
LeftLeg 75.6451 -1.60188 -6.01467
LeftFoot -3.24225 0.427712 -5.82778
LeftToes 3.91355e-005 3.11907e-005 -4.10385e-006
625
root 2.57672 24.8494 -15.6861 155.392 12.7334 -176.9
RightUpLeg -51.1288 4.13341 -1.73483
RightLeg 74.127 1.49935 4.96111
RightFoot -1.66184 -0.761013 8.83657
RightToes -0.000541893 -0.000659172 -0.000493268
Spine 13.4147 0.272498 2.02699
Spine1 27.0924 0.0889407 3.69928
HEad -17.8092 -42.4074 13.677
LeftShoulder1 -3.88251e-019 -0 -3.92111e-022
LeftArm -31.9637 -2.77639 -84.4591
LeftForeArm 25.8834 2.28424 -0.638532
LeftHand -0.47128 -6.90385 4.79635
RightShoulder 7.45443e-017 -2.42657e-020 1.96277e-018
RightArm -23.837 -1.88999 73.8166
RightForeArm 18.327 0.941403 5.10964
RightHand -1.89081 13.0941 -12.2211
LeftUpLeg -51.8573 -7.87052 8.41186
LeftLeg 75.7993 -1.53509 -5.78818
LeftFoot -3.39823 0.434385 -5.96052
LeftToes 3.91355e-005 3.11907e-005 -4.10385e-006
626
root 2.57482 24.869 -15.7223 156.484 12.9193 -176.591
RightUpLeg -52.2524 5.17686 -1.78805
RightLeg 74.0947 1.27921 4.06639
RightFoot -2.09764 -0.833393 10.1058
RightToes -0.000541893 -0.000659172 -0.000493268
Spine 13.2089 0.378824 2.24173
Spine1 26.6912 0.251978 4.13951
HEad -18.1126 -41.72 13.6291
LeftShoulder1 -3.88251e-019 -0 -3.92111e-022
LeftArm -32.4012 -2.24083 -84.6979
LeftForeArm 25.7829 2.29183 -0.685137
LeftHand -0.604694 -6.76771 6.11325
RightShoulder 7.45443e-017 -2.42657e-020 1.96277e-018
RightArm -24.1046 -2.68154 73.7866
RightForeArm 18.0327 1.58255 4.97189
RightHand -1.91391 13.2353 -12.2721
LeftUpLeg -53.027 -7.99678 9.00163
LeftLeg 75.9398 -1.58061 -6.0685
LeftFoot -3.49365 0.442128 -6.13771
LeftToes 3.91355e-005 3.11907e-005 -4.10385e-006
627
root 2.55151 24.9344 -15.7619 157.644 12.9781 -176.305
RightUpLeg -53.47 5.86216 -1.95228
RightLeg 74.0639 0.975016 2.83604
RightFoot -2.69503 -0.79217 10.2061
RightToes -0.000541893 -0.000659172 -0.000493268
Spine 13.0843 0.533336 2.46921
Spine1 26.4573 0.506239 4.67713
HEad -18.3101 -41.5281 13.7773
LeftShoulder1 -3.88251e-019 -0 -3.92111e-022
LeftArm -32.4641 -2.06616 -85.0166
LeftForeArm 25.9126 2.28789 -0.653629
LeftHand -0.72753 -6.60419 7.37413
RightShoulder 7.45443e-017 -2.42657e-020 1.96277e-018
RightArm -24.2026 -3.23769 73.5547
RightForeArm 16.6902 1.49984 4.84439
RightHand -2.21425 13.9571 -13.6078
LeftUpLeg -54.192 -8.11 9.36351
LeftLeg 76.0012 -1.7508 -6.88979
LeftFoot -3.80347 0.427505 -6.14048
LeftToes 3.91355e-005 3.11907e-005 -4.10385e-006
